@startuml
skinparam monochrome true
skinparam packageStyle rectangle
skinparam shadowing false
'skinparam linetype ortho
'left to right direction
skinparam classAttributeIconSize 0
hide circle
hide methods

class Company{

}

class Owner {
}

class Property {
area
location
distance from the city center
photographs
}

class Land {
}

class House{
existance of basement
exitance of inhabitable loft
sun exposure
}

class Apartment {
}

class Agent {
}

class PropertySaleRequest {
type of business
requested price
}


class PropertySale {
comission
type of comission
}

class Client {
name
emailAddress
telephone number
citizen card number
phone
tax number
address
}

class VisitRequest {
date
}

class BuyRequest {
}

class Store {
}

class StoreManager {
}

class Branch {
location
}

class UnregisteredUser{
}

class ResidentialProperty{
number of bedrooms
number of bathrooms
number of parking spaces
available equipment
}

class Employee{
name
passport card number
tax number
adress
email adress
phone number
password
agency
}


class NetworkManager{
}

class State {
name
}

class District {
name
}

class City {
name
}

Company "1" -- "0..*" Employee : employs >

Employee  --right SystemAdministrator : extends <
Employee  --down NetworkManager : extends <
Employee --down  Agent : extends <
Employee ------- StoreManager : extends <

UnregisteredUser "1" --- "0..*" Property : search >

Store "1" -- "1" StoreManager : contains >
StoreManager . Store : manages >
Store "1" - "0..*" Agent : contains >

Branch "1" -- "0..*" Store : contains >
Branch "1" -- "1" NetworkManager : contains >
NetworkManager "1" .. "1" Branch : manages >

SystemAdministrator "1" -- "0..*" Employee : registers >

Agent .. PropertySale : registers >
Agent .. PropertySaleRequest : aproves >
PropertySaleRequest ..up Agent : refers to >
Agent .. BuyRequest : aproves >
Agent .. VisitRequest : aproves >
PropertySale --left PropertySaleRequest : extends >

Owner  --right "0..*" Property  : owns >
PropertySaleRequest "1" -- "1" Property : contains >
Property "1" -- "1" ResidentialProperty : extends <
Property "1" --right "1" Land : extends <
ResidentialProperty "1" -- "1" House : extends <
ResidentialProperty "1" -- "1" Apartment : extends <

UnregisteredUser "1" --left "1" Client : registers >
Owner --up Client : extends >

VisitRequest .. PropertySale : refers to >
BuyRequest .. PropertySale : refers to >

State "1" - "0..*" District : contains >
District "1" - "0..*" City : contains >

SystemAdministrator -- State : registers >
SystemAdministrator -- District : registers >
SystemAdministrator -- City : registers >

Property --left State : contains >
Property --left District : contains >
City -- Property : contains <

Client -- VisitRequest : requests >
Client -- PropertySaleRequest : requests >
Client -- BuyRequest : requests >
@enduml