@startuml
skinparam monochrome true
skinparam packageStyle rectangle
skinparam shadowing false

'left to right direction

skinparam classAttributeIconSize 0

hide circle
hide methods

'title Domain Model

'class Platform {
'  -description
'}

class Store {
    storeManager
    id
    agents
    name
    email
    telephoneNumber
    address
    zipCode
    state
    district
    city
}

class Property{
area
distanceCityCenter
typeOfBusiness
price
}


class House{
basement
sunExposure
inhabitable loft
}

class PropertySale{

}

class ResidentialProperty {
      numberOfRooms
      numberOfBathrooms
      numberParkingSpaces
      centralHeating
      airConditioning
}


class Manager {
    name
    email
    position
    phone
}

class PropertySold{
    paidAmount
    buyer
    purchaseData
}

class State {
    nameState
}

class District {
    nameDistrict
}

class City {
    nameCity
}


PropertySold - Property : the >
Property "1" - "1" City : has >
Property "1" - "1" State : has >
Property "1" - "1" District : has >
Store "1" - "1" Manager : has >
Manager "1" -- "*" PropertySold : creates >
Property <|-- ResidentialProperty
House --|> ResidentialProperty
PropertySale <|-- PropertySold
@enduml